<svg width="39" height="39" viewBox="0 0 39 39" fill="none" xmlns="http://www.w3.org/2000/svg">
<g clip-path="url(#clip0_699_249)">
<path d="M15.1153 2.73142C15.1724 3.39701 15.4801 4.01621 15.9762 4.4642C16.4723 4.91218 17.1201 5.15563 17.7888 5.14547H18.2441C18.9297 5.1487 19.586 5.4232 20.0694 5.90885C20.5528 6.3945 20.8237 7.05172 20.8229 7.73651V25.5687C20.8229 28.295 20.1772 30.4028 18.8857 31.8922C17.5943 33.3815 15.7549 34.1261 13.3676 34.1261C10.9089 34.1261 9.00638 33.3774 7.65993 31.8799C6.65432 30.7109 6.01004 29.2754 5.80527 27.7477C5.708 27.1406 5.39755 26.588 4.92951 26.1887C4.46147 25.7894 3.86641 25.5696 3.25089 25.5687H2.79563C2.42586 25.5673 2.06012 25.6454 1.72316 25.7975C1.3862 25.9496 1.08588 26.1722 0.842528 26.4503C0.599174 26.7284 0.418462 27.0554 0.312619 27.4093C0.206776 27.7632 0.178272 28.1357 0.229036 28.5015C0.650691 31.3642 1.73029 33.6856 3.46783 35.4659C5.76147 37.822 9.02064 39.001 13.2453 39.003C17.4008 39.003 20.6447 37.8291 22.977 35.4812C25.3093 33.1333 26.4755 29.8291 26.4755 25.5687V2.58799C26.4759 2.24827 26.4093 1.91181 26.2794 1.59784C26.1495 1.28387 25.9589 0.998541 25.7186 0.758183C25.4782 0.517826 25.1928 0.327154 24.8786 0.197057C24.5644 0.0669609 24.2276 -2.36766e-07 23.8875 0H17.688C17.3363 0.000190485 16.9884 0.0722043 16.6656 0.211642C16.3429 0.35108 16.0521 0.554994 15.8111 0.810824C15.5702 1.06665 15.3841 1.369 15.2645 1.69929C15.1448 2.02957 15.094 2.38081 15.1153 2.73142Z" fill="url(#paint0_linear_699_249)"/>
<path d="M29.6837 19.6389C29.3781 19.0071 28.7181 17.9267 25.406 16.2818C23.1144 15.1434 21.2781 14.588 18.684 13.8403C14.1252 12.5249 10.7856 11.5605 10.7398 11.704C10.6939 11.8474 13.7494 12.9552 18.684 14.7558C19.5762 15.0824 21.1803 15.6714 23.2672 16.587C27.3248 18.3815 28.1559 19.236 28.4615 20.2492C28.6839 21.1723 28.5758 22.1441 28.1559 22.9959C27.777 23.7117 27.1887 24.2951 26.4693 24.6684V24.7172C26.4693 24.7813 26.4693 24.8423 26.4693 24.9064V25.0529C26.4693 25.1322 26.4693 25.2085 26.454 25.2848C26.4631 25.3955 26.4631 25.5068 26.454 25.6175C26.4555 25.7523 26.4463 25.887 26.4265 26.0203V26.179C26.4357 26.2999 26.4357 26.4213 26.4265 26.5422C26.4265 26.5636 26.4265 26.5819 26.4265 26.6033C26.4265 26.6246 26.4265 26.704 26.4052 26.7558C26.4078 26.867 26.4027 26.9781 26.3899 27.0885C27.1029 26.8533 27.7615 26.4781 28.3272 25.9849C28.8929 25.4917 29.3541 24.8905 29.6837 24.2167C29.7326 24.1099 30.7348 21.8789 29.6837 19.6389Z" fill="url(#paint1_linear_699_249)"/>
<path d="M36.1401 -2.10713e-06H31.8441C31.4272 -0.00247447 31.0109 0.0332733 30.6006 0.106806C30.2379 0.208024 29.9169 0.42178 29.6839 0.717183C29.4973 0.987328 29.3914 1.30482 29.3784 1.63275C29.3111 2.27975 29.1675 3.71108 29.9895 4.37944C30.6525 4.91657 31.1811 4.34282 32.1283 4.98982C32.5895 5.31864 32.9519 5.76716 33.1763 6.28687C33.2657 6.50726 33.3273 6.73793 33.3596 6.97354V25.5656C33.4591 27.833 32.7752 30.0656 31.4225 31.8891C31.013 32.4262 28.9231 35.1851 25.4063 35.5086C21.6083 35.8565 17.3979 33.2533 17.462 30.9308C17.4956 29.7345 18.6628 28.6633 19.6009 28.1841C19.7109 28.1292 19.8178 28.0804 19.9217 28.0407C20.1509 27.9482 20.3511 27.7961 20.5016 27.6002C20.652 27.4044 20.7472 27.1718 20.7772 26.9267C20.7853 26.8141 20.7995 26.7021 20.82 26.591C20.82 26.5514 20.82 26.5147 20.82 26.4751V26.353C20.82 26.3072 20.82 26.2675 20.82 26.2218C20.8153 26.1374 20.8153 26.0528 20.82 25.9684C20.8276 25.8608 20.8276 25.7526 20.82 25.6449C20.82 25.6449 20.82 25.6266 20.82 25.6175C20.82 25.6083 20.82 25.5717 20.82 25.5473C20.82 25.5229 20.82 25.5107 20.82 25.4924V25.4374C19.3485 25.658 17.9706 26.2932 16.8479 27.2686C16.4293 27.65 14.9229 29.0203 14.7091 31.236C14.4982 33.3998 15.6563 35.0142 15.9771 35.4628C18.6048 39.1251 24.126 39 25.7546 39C29.91 39 33.1539 37.826 35.4862 35.4781C37.8186 33.1302 38.9848 29.826 38.9848 25.5656V2.8535C38.984 2.09906 38.6844 1.37557 38.1514 0.84096C37.6185 0.306347 36.8954 0.00402761 36.1401 -2.10713e-06Z" fill="url(#paint2_linear_699_249)"/>
<path d="M0.0457822 5.75895C-0.546979 3.54023 3.79484 6.2686 4.01789 6.22588C4.079 6.22588 5.0262 5.762 5.14536 5.70096C5.21564 5.66434 5.22175 5.30726 5.55785 5.16077C5.75645 5.07532 5.96117 5.30727 6.2545 5.09059C6.35533 5.01734 6.33088 4.66027 6.66393 4.5504C6.99697 4.44053 7.07947 4.65111 7.21391 4.60533C7.26891 4.58397 7.47057 4.11704 7.53779 4.08347C7.77306 3.97055 8.21305 3.9797 8.47276 3.86983C8.77831 3.7386 10.7521 2.55752 10.8774 3.27777C10.9507 3.70808 7.00003 7.33372 6.50199 7.92883C6.95114 8.01123 8.7722 9.72639 8.92497 9.73554C9.37107 9.76301 11.2502 8.28285 11.5649 8.99699C11.7604 9.44257 10.0616 10.4649 10.0555 10.5901C10.0494 10.7152 10.7369 10.8159 10.6666 11.1181L9.87828 10.9868L10.6269 11.5301L9.71023 11.2462C9.59412 11.7162 9.76828 13.3246 8.99831 13.1933C8.38721 13.0896 8.64998 11.1272 8.38721 10.706C8.25277 10.4894 5.99478 9.87593 5.65868 9.5036L3.47402 15.525C2.50238 14.8688 2.95764 13.6725 2.88431 12.7783C2.88431 12.6593 2.54821 12.4365 2.5421 12.055C2.5421 11.7498 2.9332 11.469 2.9332 11.4293C2.9332 11.3164 2.60627 11.1486 2.58182 11.0662C2.39849 10.41 3.05236 10.1964 3.06458 10.0652C3.06458 10.0224 2.74071 9.67146 2.72237 9.34186C2.72237 9.08855 3.09208 8.54837 2.89348 8.14247C2.77432 7.83728 0.329941 6.78743 0.0457822 5.75895Z" fill="#3D4453"/>
</g>
<defs>
<linearGradient id="paint0_linear_699_249" x1="0.186259" y1="19.4985" x2="26.4725" y2="19.4985" gradientUnits="userSpaceOnUse">
<stop stop-color="#C2E8F9"/>
<stop offset="0.03" stop-color="#B2E1F7"/>
<stop offset="0.09" stop-color="#97D6F4"/>
<stop offset="0.15" stop-color="#84CEF2"/>
<stop offset="0.21" stop-color="#79CAF0"/>
<stop offset="0.28" stop-color="#75C8F0"/>
<stop offset="0.67" stop-color="#668CC8"/>
<stop offset="1" stop-color="#3A409A"/>
</linearGradient>
<linearGradient id="paint1_linear_699_249" x1="10.7398" y1="19.3916" x2="30.1603" y2="19.3916" gradientUnits="userSpaceOnUse">
<stop stop-color="#C2E8F9"/>
<stop offset="0.03" stop-color="#B2E1F7"/>
<stop offset="0.09" stop-color="#97D6F4"/>
<stop offset="0.15" stop-color="#84CEF2"/>
<stop offset="0.21" stop-color="#79CAF0"/>
<stop offset="0.28" stop-color="#75C8F0"/>
<stop offset="0.67" stop-color="#668CC8"/>
<stop offset="1" stop-color="#3A409A"/>
</linearGradient>
<linearGradient id="paint2_linear_699_249" x1="14.6877" y1="19.4985" x2="39" y2="19.4985" gradientUnits="userSpaceOnUse">
<stop stop-color="#C2E8F9"/>
<stop offset="0.03" stop-color="#B2E1F7"/>
<stop offset="0.09" stop-color="#97D6F4"/>
<stop offset="0.15" stop-color="#84CEF2"/>
<stop offset="0.21" stop-color="#79CAF0"/>
<stop offset="0.28" stop-color="#75C8F0"/>
<stop offset="0.67" stop-color="#668CC8"/>
<stop offset="1" stop-color="#3A409A"/>
</linearGradient>
<clipPath id="clip0_699_249">
<rect width="39" height="39" fill="white"/>
</clipPath>
</defs>
</svg>
